<mxfile host="app.diagrams.net" agent="Mozilla/5.0 (Windows NT 10.0; Win64; x64) AppleWebKit/537.36 (KHTML, like Gecko) Chrome/129.0.0.0 Safari/537.36 Edg/129.0.0.0" version="24.8.4">
  <diagram name="第 1 页" id="6KRM2beXEi3743PBKAWX">
    <mxGraphModel dx="1213" dy="627" grid="1" gridSize="10" guides="1" tooltips="1" connect="1" arrows="1" fold="1" page="1" pageScale="1" pageWidth="827" pageHeight="1169" math="0" shadow="0">
      <root>
        <mxCell id="0" />
        <mxCell id="1" parent="0" />
        <mxCell id="IWrpUvWpcIlaypWHKGKS-2" value="" style="edgeStyle=orthogonalEdgeStyle;rounded=0;orthogonalLoop=1;jettySize=auto;html=1;labelBackgroundColor=none;strokeColor=#DDA15E;fontColor=default;" edge="1" parent="1" source="ZqVCBLkyAQy7TAbwfxVL-1" target="IWrpUvWpcIlaypWHKGKS-1">
          <mxGeometry relative="1" as="geometry" />
        </mxCell>
        <mxCell id="ZqVCBLkyAQy7TAbwfxVL-1" value="这是一个测试" style="rounded=0;whiteSpace=wrap;html=1;labelBackgroundColor=none;fillColor=#BC6C25;strokeColor=#DDA15E;fontColor=#FEFAE0;" parent="1" vertex="1">
          <mxGeometry x="150" y="250" width="120" height="60" as="geometry" />
        </mxCell>
        <mxCell id="IWrpUvWpcIlaypWHKGKS-1" value="网络测试架构图" style="shape=parallelogram;perimeter=parallelogramPerimeter;whiteSpace=wrap;html=1;fixedSize=1;rounded=0;labelBackgroundColor=none;fillColor=#BC6C25;strokeColor=#DDA15E;fontColor=#FEFAE0;" vertex="1" parent="1">
          <mxGeometry x="330" y="250" width="120" height="60" as="geometry" />
        </mxCell>
      </root>
    </mxGraphModel>
  </diagram>
</mxfile>
